<svg width="52.000000" height="52.000000" viewBox="0 0 52 52" fill="none" xmlns="http://www.w3.org/2000/svg" xmlns:xlink="http://www.w3.org/1999/xlink">
	<desc>
			Created with Pixso.
	</desc>
	<defs/>
	<rect id="Rectangle 69" y="-0.604004" rx="15.000000" width="52.000000" height="52.000000" fill="#EBD96B" fill-opacity="1.000000"/>
	<path id="Vector" d="M25.94 19.72C22.84 19.72 20.33 22.23 20.33 25.33C20.33 28.44 22.84 30.94 25.94 30.94C29.05 30.94 31.55 28.44 31.55 25.33C31.55 22.23 29.05 19.72 25.94 19.72ZM25.94 28.98C23.93 28.98 22.29 27.34 22.29 25.33C22.29 23.32 23.93 21.68 25.94 21.68C27.95 21.68 29.59 23.32 29.59 25.33C29.59 27.34 27.95 28.98 25.94 28.98ZM33.09 19.49C33.09 20.22 32.5 20.8 31.78 20.8C31.05 20.8 30.47 20.21 30.47 19.49C30.47 18.77 31.06 18.18 31.78 18.18C32.5 18.18 33.09 18.77 33.09 19.49ZM36.81 20.82C36.72 19.07 36.32 17.51 35.04 16.24C33.76 14.96 32.21 14.56 30.45 14.47C28.65 14.37 23.23 14.37 21.42 14.47C19.68 14.55 18.12 14.95 16.84 16.23C15.56 17.51 15.16 19.06 15.07 20.82C14.97 22.62 14.97 28.04 15.07 29.84C15.15 31.6 15.56 33.15 16.84 34.43C18.12 35.71 19.67 36.11 21.42 36.2C23.23 36.3 28.65 36.3 30.45 36.2C32.21 36.11 33.76 35.71 35.04 34.43C36.32 33.15 36.72 31.6 36.81 29.84C36.91 28.04 36.91 22.63 36.81 20.82ZM34.47 31.78C34.09 32.74 33.35 33.48 32.39 33.86C30.95 34.43 27.53 34.3 25.94 34.3C24.35 34.3 20.93 34.43 19.49 33.86C18.53 33.48 17.8 32.74 17.41 31.78C16.84 30.34 16.97 26.92 16.97 25.33C16.97 23.74 16.84 20.32 17.41 18.88C17.79 17.92 18.53 17.19 19.49 16.8C20.93 16.23 24.35 16.36 25.94 16.36C27.53 16.36 30.96 16.24 32.39 16.8C33.35 17.18 34.09 17.92 34.47 18.88C35.04 20.32 34.91 23.74 34.91 25.33C34.91 26.92 35.04 30.35 34.47 31.78Z" fill="#000000" fill-opacity="1.000000" fill-rule="nonzero"/>
</svg>
