<svg width="52.000000" height="52.000000" viewBox="0 0 52 52" fill="none" xmlns="http://www.w3.org/2000/svg" xmlns:xlink="http://www.w3.org/1999/xlink">
	<desc>
			Created with Pixso.
	</desc>
	<defs/>
	<rect id="Rectangle 73" y="-0.604004" rx="15.000000" width="52.000000" height="52.000000" fill="#EBD96B" fill-opacity="1.000000"/>
	<path id="in" d="M17.47 16.58Q17.27 16.95 17.27 17.43Q17.27 17.92 17.48 18.29Q17.6 18.51 17.79 18.7Q17.89 18.79 18.01 18.87Q18.48 19.19 19.17 19.19Q19.87 19.19 20.34 18.86Q20.45 18.79 20.54 18.7Q20.75 18.5 20.87 18.27Q21.07 17.9 21.07 17.43Q21.07 16.97 20.88 16.61Q20.76 16.37 20.55 16.18Q20.47 16.09 20.37 16.03Q19.89 15.68 19.17 15.68Q18.42 15.68 17.94 16.04Q17.85 16.1 17.78 16.18Q17.59 16.36 17.47 16.58ZM27.37 22.18L27.27 20.71L24.08 20.71L24.08 33.39L27.47 33.39L27.47 24.45Q27.82 23.85 28.34 23.55Q28.88 23.23 29.61 23.23Q30.7 23.23 31.17 23.72Q31.64 24.2 31.64 25.28L31.64 33.39L35.03 33.39L35.03 25.2Q35 22.84 34.02 21.66Q33.86 21.48 33.68 21.32Q32.72 20.48 31.02 20.48Q29.73 20.48 28.73 21.02Q27.96 21.44 27.37 22.18ZM17.47 33.39L20.87 33.39L20.87 20.71L17.47 20.71L17.47 33.39Z" fill="#000000" fill-opacity="1.000000" fill-rule="evenodd"/>
</svg>
