<svg width="52.000000" height="52.000000" viewBox="0 0 52 52" fill="none" xmlns="http://www.w3.org/2000/svg" xmlns:xlink="http://www.w3.org/1999/xlink">
	<desc>
			Created with Pixso.
	</desc>
	<defs/>
	<rect id="Rectangle 71" y="-0.604004" rx="15.000000" width="52.000000" height="52.000000" fill="#EBD96B" fill-opacity="1.000000"/>
	<path id="Vector" d="M38.43 20.45C38.44 20.67 38.44 20.9 38.44 21.12C38.44 27.89 33.29 35.7 23.86 35.7C20.96 35.7 18.26 34.85 16 33.4C16.41 33.44 16.8 33.46 17.23 33.46C19.63 33.46 21.83 32.65 23.59 31.27C21.34 31.22 19.45 29.75 18.8 27.72C19.12 27.76 19.44 27.8 19.77 27.8C20.23 27.8 20.69 27.73 21.12 27.62C18.77 27.15 17.01 25.08 17.01 22.59L17.01 22.53C17.69 22.91 18.49 23.15 19.33 23.18C17.95 22.26 17.04 20.69 17.04 18.91C17.04 17.96 17.3 17.09 17.74 16.33C20.26 19.44 24.05 21.47 28.3 21.69C28.23 21.31 28.18 20.91 28.18 20.51C28.18 17.69 30.46 15.39 33.3 15.39C34.78 15.39 36.11 16.01 37.05 17.01C38.2 16.79 39.31 16.36 40.3 15.77C39.92 16.96 39.11 17.96 38.04 18.6C39.08 18.48 40.07 18.2 40.99 17.8C40.3 18.82 39.42 19.72 38.43 20.45Z" fill="#000000" fill-opacity="1.000000" fill-rule="nonzero"/>
</svg>
