<svg width="32.000000" height="29.000000" viewBox="0 0 32 29" fill="none" xmlns="http://www.w3.org/2000/svg" xmlns:xlink="http://www.w3.org/1999/xlink">
	<desc>
			Created with Pixso.
	</desc>
	<defs/>
	<path id="Vector" d="M31.17 2.2C21.84 -1.12 11.7 -1.39 2.21 1.42C1.83 1.51 1.48 1.67 1.17 1.9C0.85 2.13 0.59 2.42 0.39 2.76C0.2 3.09 0.07 3.46 0.02 3.85C-0.03 4.23 0 4.62 0.1 5C0.62 7.08 1.38 9.48 2.29 11.65C2.3 11.7 2.33 11.68 2.33 11.63C2.2 10.61 2.98 9.32 4.52 8.85C11.9 6.5 19.84 6.61 27.16 9.15C27.43 9.25 27.71 9.28 28 9.26C28.28 9.24 28.56 9.17 28.82 9.04C29.07 8.91 29.3 8.73 29.48 8.51C29.67 8.29 29.8 8.04 29.89 7.77C30.8 4.84 31.17 2.85 31.26 2.35C31.27 2.26 31.19 2.23 31.17 2.2L31.17 2.2ZM8.66 8.64C7.55 8.88 6 9.25 4.84 9.63C2.52 10.43 2.63 13.25 3.86 14.15C3.95 13.63 4.52 12.92 5.14 12.68C7.46 11.77 9.94 11.22 12.46 11C11.18 10.48 9.93 9.74 8.68 8.64L8.66 8.64ZM27.13 14.29C23.8 12.73 20.18 11.85 16.51 11.7C12.83 11.56 9.16 12.15 5.71 13.45C4.61 13.86 3.91 15.21 4.61 16.48C5.81 18.67 7.18 20.76 8.71 22.73C8.49 21.98 8.87 20.57 10.36 20.11C14.46 18.85 18.77 19.39 21.63 20.55C22.44 20.87 23.59 20.67 24.23 19.71C25.32 18.03 26.32 16.28 27.21 14.48C27.25 14.4 27.21 14.34 27.13 14.29ZM20.48 24.41C19.27 23.81 18.18 23.01 17.22 22.07C16.78 21.62 16.13 20.99 15.44 20.23C13.87 20.23 12.35 20.39 10.73 20.91C9.21 21.38 9.07 23.13 9.73 24.04C10.85 25.43 11.64 26.18 12.89 27.47C13.55 28.12 14.44 28.49 15.37 28.5C16.3 28.5 17.19 28.14 17.86 27.5C18.84 26.52 19.44 25.87 20.54 24.62C20.61 24.55 20.58 24.44 20.47 24.41L20.48 24.41Z" fill="#000000" fill-opacity="1.000000" fill-rule="nonzero"/>
</svg>
